<svg xmlns="http://www.w3.org/2000/svg" viewBox="0 0 512 512">
  <defs>
    <linearGradient id="bg" x1="0%" y1="0%" x2="100%" y2="100%">
      <stop offset="0%" style="stop-color:#1e3a5f"/>
      <stop offset="100%" style="stop-color:#06b6d4"/>
    </linearGradient>
  </defs>
  <rect width="512" height="512" rx="96" fill="url(#bg)"/>
  <g transform="translate(256,256)" fill="white">
    <path d="M0-120 L28-104 L28-76 L0-60 L-28-76 L-28-104Z" transform="rotate(0)"/>
    <circle r="60" fill="none" stroke="white" stroke-width="40"/>
    <circle r="30" fill="url(#bg)"/>
    <!-- Gear teeth -->
    <g>
      <rect x="-15" y="-130" width="30" height="40" rx="6"/>
      <rect x="-15" y="-130" width="30" height="40" rx="6" transform="rotate(45)"/>
      <rect x="-15" y="-130" width="30" height="40" rx="6" transform="rotate(90)"/>
      <rect x="-15" y="-130" width="30" height="40" rx="6" transform="rotate(135)"/>
      <rect x="-15" y="-130" width="30" height="40" rx="6" transform="rotate(180)"/>
      <rect x="-15" y="-130" width="30" height="40" rx="6" transform="rotate(225)"/>
      <rect x="-15" y="-130" width="30" height="40" rx="6" transform="rotate(270)"/>
      <rect x="-15" y="-130" width="30" height="40" rx="6" transform="rotate(315)"/>
    </g>
  </g>
</svg>